<?xml version="1.0" encoding="utf-8"?><svg xml:space="preserve" viewBox="0 0 100 100" y="0" x="0" xmlns="http://www.w3.org/2000/svg" id="圖層_1" version="1.1" width="128px" height="128px" xmlns:xlink="http://www.w3.org/1999/xlink" style="width:100%;height:100%;background-size:initial;background-repeat-y:initial;background-repeat-x:initial;background-position-y:initial;background-position-x:initial;background-origin:initial;background-image:initial;background-color:rgb(241, 242, 243);background-clip:initial;background-attachment:initial;animation-play-state:paused" ><g class="ldl-scale" style="transform-origin:50% 50%;transform:rotate(0deg) scale(0.8, 0.8);animation-play-state:paused" ><circle fill="#333" r="40" cy="50" cx="50" style="fill:rgb(187, 206, 221);animation-play-state:paused" ></circle>
<path fill="#f5e6c8" d="M58 46.6c-.4-.2-.8-.4-1.3-.6 3.9-2.6 6.3-7.3 5.4-12.5-.9-5.3-5.4-9.4-10.7-10-7.5-.8-13.8 5-13.8 12.3 0 4.3 2.2 8.1 5.6 10.3-.4.2-.9.4-1.3.6-4.8 2.8-8.1 8-8.1 13.9v10.5c0 3.1 2.5 5.6 5.6 5.6h21.1c3.1 0 5.6-2.5 5.6-5.6V60.6c0-6-3.3-11.2-8.1-14z" style="fill:rgb(133, 162, 182);animation-play-state:paused" ></path>
<metadata xmlns:d="https://loading.io/stock/" style="animation-play-state:paused" ><d:name style="animation-play-state:paused" >user</d:name>


<d:tags style="animation-play-state:paused" >people,avatar,man,figure,human,account,profile,user,web application</d:tags>


<d:license style="animation-play-state:paused" >by</d:license>


<d:slug style="animation-play-state:paused" >kyruoz</d:slug></metadata></g><!-- generated by https://loading.io/ --></svg>